<?xml version="1.0" encoding="UTF-8" standalone="no"?>
<!-- Created with Inkscape (http://www.inkscape.org/) -->

<svg
   xmlns:dc="http://purl.org/dc/elements/1.1/"
   xmlns:cc="http://creativecommons.org/ns#"
   xmlns:rdf="http://www.w3.org/1999/02/22-rdf-syntax-ns#"
   xmlns:svg="http://www.w3.org/2000/svg"
   xmlns="http://www.w3.org/2000/svg"
   xmlns:xlink="http://www.w3.org/1999/xlink"
   xmlns:sodipodi="http://sodipodi.sourceforge.net/DTD/sodipodi-0.dtd"
   xmlns:inkscape="http://www.inkscape.org/namespaces/inkscape"
   width="192"
   height="192"
   id="svg2"
   version="1.1"
   inkscape:version="0.48.4 r9939"
   inkscape:export-filename="C:\Dropbox\Public\IconMaker\designs\star-overlay.png"
   inkscape:export-xdpi="90"
   inkscape:export-ydpi="90"
   sodipodi:docname="star-design.svg">
  <defs
     id="defs4">
    <inkscape:perspective
       sodipodi:type="inkscape:persp3d"
       inkscape:vp_x="0 : 96 : 1"
       inkscape:vp_y="0 : 1000 : 0"
       inkscape:vp_z="192 : 96 : 1"
       inkscape:persp3d-origin="96 : 64 : 1"
       id="perspective3943" />
    <linearGradient
       id="linearGradient3882">
      <stop
         style="stop-color:#ffffff;stop-opacity:0.39215687;"
         offset="0"
         id="stop3884" />
      <stop
         style="stop-color:#ffffff;stop-opacity:0.49019608;"
         offset="1"
         id="stop3886" />
    </linearGradient>
    <linearGradient
       id="linearGradient3760">
      <stop
         style="stop-color:#ffffff;stop-opacity:0.81846154;"
         offset="0"
         id="stop3762" />
      <stop
         style="stop-color:#ffffff;stop-opacity:0.29411766;"
         offset="1"
         id="stop3764" />
    </linearGradient>
    <radialGradient
       inkscape:collect="always"
       xlink:href="#linearGradient3760"
       id="radialGradient3768"
       cx="94.683594"
       cy="914.96222"
       fx="94.683594"
       fy="914.96222"
       r="88.771118"
       gradientTransform="matrix(1,0,0,0.54856168,52,459.54899)"
       gradientUnits="userSpaceOnUse" />
    <radialGradient
       inkscape:collect="always"
       xlink:href="#linearGradient3760"
       id="radialGradient3767"
       cx="120.92931"
       cy="1003.1658"
       fx="120.92931"
       fy="1003.1658"
       r="46.912422"
       gradientTransform="matrix(1,0,0,0.72254478,0,278.33358)"
       gradientUnits="userSpaceOnUse" />
    <radialGradient
       inkscape:collect="always"
       xlink:href="#linearGradient3760"
       id="radialGradient3983"
       cx="143.43935"
       cy="143.75394"
       fx="143.43935"
       fy="143.75394"
       r="23.878534"
       gradientTransform="matrix(1,0,0,0.76990681,0,33.076803)"
       gradientUnits="userSpaceOnUse" />
    <radialGradient
       inkscape:collect="always"
       xlink:href="#linearGradient3760-0"
       id="radialGradient3983-6"
       cx="143.43935"
       cy="143.75394"
       fx="143.43935"
       fy="143.75394"
       r="23.878534"
       gradientTransform="matrix(1,0,0,0.76990681,0,33.076803)"
       gradientUnits="userSpaceOnUse" />
    <linearGradient
       id="linearGradient3760-0">
      <stop
         style="stop-color:#ffffff;stop-opacity:0.39215687;"
         offset="0"
         id="stop3762-4" />
      <stop
         style="stop-color:#ffffff;stop-opacity:0.49019608;"
         offset="1"
         id="stop3764-9" />
    </linearGradient>
    <radialGradient
       r="23.878534"
       fy="143.75394"
       fx="143.43935"
       cy="143.75394"
       cx="143.43935"
       gradientTransform="matrix(-1,0,0,-0.76990678,209.70795,196.13898)"
       gradientUnits="userSpaceOnUse"
       id="radialGradient4000-6"
       xlink:href="#linearGradient3760-0-0"
       inkscape:collect="always" />
    <linearGradient
       id="linearGradient3760-0-0">
      <stop
         style="stop-color:#ffffff;stop-opacity:0.39215687;"
         offset="0"
         id="stop3762-4-3" />
      <stop
         style="stop-color:#ffffff;stop-opacity:0.49019608;"
         offset="1"
         id="stop3764-9-6" />
    </linearGradient>
    <radialGradient
       inkscape:collect="always"
       xlink:href="#linearGradient3760-5"
       id="radialGradient3983-4"
       cx="143.43935"
       cy="143.75394"
       fx="143.43935"
       fy="143.75394"
       r="23.878534"
       gradientTransform="matrix(1,0,0,0.76990681,0,33.076803)"
       gradientUnits="userSpaceOnUse" />
    <linearGradient
       id="linearGradient3760-5">
      <stop
         style="stop-color:#ffffff;stop-opacity:0.39215687;"
         offset="0"
         id="stop3762-8" />
      <stop
         style="stop-color:#ffffff;stop-opacity:0.49019608;"
         offset="1"
         id="stop3764-8" />
    </linearGradient>
    <radialGradient
       r="23.878534"
       fy="143.75394"
       fx="143.43935"
       cy="143.75394"
       cx="143.43935"
       gradientTransform="matrix(0.95227243,0,0,0.75165622,11.735559,38.746494)"
       gradientUnits="userSpaceOnUse"
       id="radialGradient4068"
       xlink:href="#linearGradient3760-5"
       inkscape:collect="always" />
    <radialGradient
       inkscape:collect="always"
       xlink:href="#linearGradient3760-1"
       id="radialGradient3983-2"
       cx="143.43935"
       cy="143.75394"
       fx="143.43935"
       fy="143.75394"
       r="23.878534"
       gradientTransform="matrix(1,0,0,0.76990681,0,33.076803)"
       gradientUnits="userSpaceOnUse" />
    <linearGradient
       id="linearGradient3760-1">
      <stop
         style="stop-color:#ffffff;stop-opacity:0.39215687;"
         offset="0"
         id="stop3762-49" />
      <stop
         style="stop-color:#ffffff;stop-opacity:0.49019608;"
         offset="1"
         id="stop3764-82" />
    </linearGradient>
    <radialGradient
       r="23.878534"
       fy="143.75394"
       fx="143.43935"
       cy="143.75394"
       cx="143.43935"
       gradientTransform="matrix(1.1159424,0.791746,-0.64149168,0.51204809,81.711002,-39.620077)"
       gradientUnits="userSpaceOnUse"
       id="radialGradient4102"
       xlink:href="#linearGradient3760-1"
       inkscape:collect="always" />
    <radialGradient
       r="23.878534"
       fy="143.75394"
       fx="143.43935"
       cy="143.75394"
       cx="143.43935"
       gradientTransform="matrix(-1,0,0,-0.76990678,209.70795,196.13898)"
       gradientUnits="userSpaceOnUse"
       id="radialGradient4000-2"
       xlink:href="#linearGradient3760-0-9"
       inkscape:collect="always" />
    <linearGradient
       id="linearGradient3760-0-9">
      <stop
         style="stop-color:#ffffff;stop-opacity:0.39215687;"
         offset="0"
         id="stop3762-4-9" />
      <stop
         style="stop-color:#ffffff;stop-opacity:0.49019608;"
         offset="1"
         id="stop3764-9-8" />
    </linearGradient>
    <radialGradient
       r="23.878534"
       fy="143.75394"
       fx="143.43935"
       cy="143.75394"
       cx="143.43935"
       gradientTransform="matrix(-1.4185549,0,0,-1.0909857,324.68335,293.22881)"
       gradientUnits="userSpaceOnUse"
       id="radialGradient4034-3"
       xlink:href="#linearGradient3760-0-0-8"
       inkscape:collect="always" />
    <linearGradient
       id="linearGradient3760-0-0-8">
      <stop
         style="stop-color:#ffffff;stop-opacity:0.39215687;"
         offset="0"
         id="stop3762-4-3-6" />
      <stop
         style="stop-color:#ffffff;stop-opacity:0.49019608;"
         offset="1"
         id="stop3764-9-6-9" />
    </linearGradient>
    <radialGradient
       r="23.878534"
       fy="143.75394"
       fx="143.43935"
       cy="143.75394"
       cx="143.43935"
       gradientTransform="matrix(-1,0,0,-0.76990678,270.31251,248.78734)"
       gradientUnits="userSpaceOnUse"
       id="radialGradient4141"
       xlink:href="#linearGradient3760-0-9"
       inkscape:collect="always" />
    <linearGradient
       id="linearGradient3760-0-7">
      <stop
         style="stop-color:#ffffff;stop-opacity:0.39215687;"
         offset="0"
         id="stop3762-4-4" />
      <stop
         style="stop-color:#ffffff;stop-opacity:0.49019608;"
         offset="1"
         id="stop3764-9-0" />
    </linearGradient>
    <linearGradient
       id="linearGradient3760-0-0-4">
      <stop
         style="stop-color:#ffffff;stop-opacity:0.39215687;"
         offset="0"
         id="stop3762-4-3-8" />
      <stop
         style="stop-color:#ffffff;stop-opacity:0.49019608;"
         offset="1"
         id="stop3764-9-6-8" />
    </linearGradient>
    <linearGradient
       id="linearGradient3760-0-9-4">
      <stop
         style="stop-color:#ffffff;stop-opacity:0.39215687;"
         offset="0"
         id="stop3762-4-9-5" />
      <stop
         style="stop-color:#ffffff;stop-opacity:0.49019608;"
         offset="1"
         id="stop3764-9-8-5" />
    </linearGradient>
    <linearGradient
       id="linearGradient3760-0-0-8-7">
      <stop
         style="stop-color:#ffffff;stop-opacity:0.39215687;"
         offset="0"
         id="stop3762-4-3-6-1" />
      <stop
         style="stop-color:#ffffff;stop-opacity:0.49019608;"
         offset="1"
         id="stop3764-9-6-9-1" />
    </linearGradient>
    <filter
       id="filter3232"
       style="color-interpolation-filters:sRGB;"
       inkscape:label="Drop Shadow">
      <feFlood
         id="feFlood3234"
         flood-opacity="1"
         flood-color="rgb(0,0,0)"
         result="flood" />
      <feComposite
         id="feComposite3236"
         in2="SourceGraphic"
         in="flood"
         operator="in"
         result="composite1" />
      <feGaussianBlur
         id="feGaussianBlur3238"
         in="composite"
         stdDeviation="1"
         result="blur" />
      <feOffset
         id="feOffset3240"
         dx="0"
         dy="0"
         result="offset" />
      <feComposite
         id="feComposite3242"
         in2="offset"
         in="SourceGraphic"
         operator="over"
         result="fbSourceGraphic" />
      <feColorMatrix
         result="fbSourceGraphicAlpha"
         in="fbSourceGraphic"
         values="0 0 0 -1 0 0 0 0 -1 0 0 0 0 -1 0 0 0 0 1 0"
         id="feColorMatrix3244" />
      <feFlood
         id="feFlood3246"
         flood-opacity="1"
         flood-color="rgb(0,0,0)"
         result="flood"
         in="fbSourceGraphic" />
      <feComposite
         id="feComposite3248"
         in2="fbSourceGraphic"
         in="flood"
         operator="in"
         result="composite1" />
      <feGaussianBlur
         id="feGaussianBlur3250"
         in="composite"
         stdDeviation="1"
         result="blur" />
      <feOffset
         id="feOffset3252"
         dx="0"
         dy="0"
         result="offset" />
      <feComposite
         id="feComposite3254"
         in2="offset"
         in="fbSourceGraphic"
         operator="over"
         result="composite2" />
    </filter>
    <filter
       id="filter3976"
       style="color-interpolation-filters:sRGB;"
       inkscape:label="Drop Shadow">
      <feFlood
         id="feFlood3978"
         flood-opacity="1"
         flood-color="rgb(0,0,0)"
         result="flood" />
      <feComposite
         id="feComposite3980"
         in2="SourceGraphic"
         in="flood"
         operator="in"
         result="composite1" />
      <feGaussianBlur
         id="feGaussianBlur3982"
         in="composite"
         stdDeviation="1"
         result="blur" />
      <feOffset
         id="feOffset3984"
         dx="0"
         dy="0"
         result="offset" />
      <feComposite
         id="feComposite3986"
         in2="offset"
         in="SourceGraphic"
         operator="over"
         result="fbSourceGraphic" />
      <feColorMatrix
         result="fbSourceGraphicAlpha"
         in="fbSourceGraphic"
         values="0 0 0 -1 0 0 0 0 -1 0 0 0 0 -1 0 0 0 0 1 0"
         id="feColorMatrix3988" />
      <feFlood
         id="feFlood3990"
         flood-opacity="1"
         flood-color="rgb(0,0,0)"
         result="flood"
         in="fbSourceGraphic" />
      <feComposite
         id="feComposite3992"
         in2="fbSourceGraphic"
         in="flood"
         operator="in"
         result="composite1" />
      <feGaussianBlur
         id="feGaussianBlur3994"
         in="composite"
         stdDeviation="1"
         result="blur" />
      <feOffset
         id="feOffset3996"
         dx="0"
         dy="0"
         result="offset" />
      <feComposite
         id="feComposite3998"
         in2="offset"
         in="fbSourceGraphic"
         operator="over"
         result="composite2" />
    </filter>
  </defs>
  <sodipodi:namedview
     id="base"
     pagecolor="#0085ff"
     bordercolor="#666666"
     borderopacity="1.0"
     inkscape:pageopacity="0"
     inkscape:pageshadow="2"
     inkscape:zoom="1.8432653"
     inkscape:cx="33.460444"
     inkscape:cy="16.758701"
     inkscape:document-units="px"
     inkscape:current-layer="layer1"
     showgrid="false"
     inkscape:window-width="1440"
     inkscape:window-height="844"
     inkscape:window-x="-4"
     inkscape:window-y="-4"
     inkscape:window-maximized="1"
     showguides="false"
     inkscape:guide-bbox="true"
     borderlayer="true"
     guidetolerance="10000"
     inkscape:snap-global="true">
    <sodipodi:guide
       position="187.50131,187.50133"
       orientation="183.00265,0"
       id="guide3787" />
    <sodipodi:guide
       position="29,6"
       orientation="0,-183.00262"
       id="guide3789" />
    <sodipodi:guide
       position="4.4986875,4.49868"
       orientation="-183.00257,0"
       id="guide3791" />
    <sodipodi:guide
       position="4.4986875,4.49868"
       orientation="1.1368684e-013,1.1546319e-014"
       id="guide3793" />
    <inkscape:grid
       type="xygrid"
       id="grid3795"
       empspacing="5"
       visible="true"
       enabled="true"
       snapvisiblegridlinesonly="true" />
  </sodipodi:namedview>
  <metadata
     id="metadata7">
    <rdf:RDF>
      <cc:Work
         rdf:about="">
        <dc:format>image/svg+xml</dc:format>
        <dc:type
           rdf:resource="http://purl.org/dc/dcmitype/StillImage" />
        <dc:title></dc:title>
      </cc:Work>
    </rdf:RDF>
  </metadata>
  <g
     inkscape:label="Layer 1"
     inkscape:groupmode="layer"
     id="layer1"
     transform="translate(0,-860.36218)">
    <path
       style="fill:#000000;fill-opacity:1;fill-rule:nonzero;stroke:none;stroke-width:5;stroke-miterlimit:4;stroke-dasharray:none;filter:url(#filter3976)"
       d="m 230.56909,860.9047 0,192 192,0 0,-192 z m 96.09375,1.9375 c 1.99009,0.003 3.44162,1.01311 5.03125,2.28125 1.58964,1.26815 3.27193,2.96256 5.0625,4.96875 3.58113,4.01237 7.60132,9.28391 11.5625,14.6875 3.96119,5.40358 7.85829,10.9092 11.125,15.34375 3.26672,4.43455 6.21728,7.96471 7,8.5625 0.78271,0.59779 4.87779,2.47423 9.90625,4.375 5.02845,1.90078 11.22242,4.10944 17.34375,6.40625 6.12134,2.2968 12.16494,4.65622 16.90625,7 2.37065,1.17189 4.42374,2.33375 6.0625,3.53125 1.63876,1.1975 2.98148,2.3592 3.59375,4.34375 0.61228,1.98456 0.15954,3.74238 -0.5,5.71875 -0.65954,1.97637 -1.67031,4.15778 -2.9375,6.5625 -2.53438,4.80943 -6.10185,10.44434 -9.78125,16.0625 -3.67939,5.61816 -7.48535,11.21726 -10.5,15.84375 -3.01464,4.62649 -5.29316,8.62884 -5.59375,9.59375 -0.30058,0.9649 -0.73528,5.61921 -0.90625,11.21872 -0.17097,5.59953 -0.24487,12.47003 -0.4375,19.28133 -0.19262,6.8112 -0.49455,13.581 -1.15625,19.0312 -0.33086,2.7251 -0.73224,5.1215 -1.3125,7.125 -0.58026,2.0035 -1.20082,3.7139 -2.8125,4.9375 -1.61167,1.2238 -3.34648,1.2658 -5.34375,1.2188 -1.99726,-0.047 -4.30126,-0.355 -6.875,-0.875 -5.14746,-1.04 -11.35857,-2.8499 -17.59375,-4.7813 -6.23517,-1.9313 -12.49513,-3.9872 -17.625,-5.5625 -5.12987,-1.5752 -9.50026,-2.5937 -10.46875,-2.5937 -0.96848,-10e-4 -5.30338,1.0025 -10.4375,2.5625 -5.13412,1.5599 -11.38461,3.6184 -17.625,5.5312 -6.24038,1.9128 -12.47473,3.6941 -17.625,4.7188 -2.57513,0.5123 -4.87762,0.8027 -6.875,0.8437 -1.99738,0.041 -3.7354,-0.022 -5.34375,-1.25 -1.60834,-1.2283 -2.20642,-2.9323 -2.78125,-4.9375 -0.57482,-2.0052 -0.98903,-4.4301 -1.3125,-7.1562 -0.64693,-5.4521 -0.95084,-12.157 -1.125,-18.9688 -0.17415,-6.8118 -0.18796,-13.6812 -0.34375,-19.28123 -0.15578,-5.60005 -0.60828,-10.25297 -0.90625,-11.21877 -0.29797,-0.96579 -2.56041,-5.0208 -5.5625,-9.65625 -3.00209,-4.63545 -6.77335,-10.24591 -10.4375,-15.875 -3.66414,-5.6291 -7.22867,-11.27679 -9.75,-16.09375 -1.26066,-2.40848 -2.25206,-4.61543 -2.90625,-6.59375 -0.65418,-1.97833 -1.11766,-3.73603 -0.5,-5.71875 0.61766,-1.98273 1.98301,-3.08863 3.625,-4.28125 1.642,-1.19261 3.68868,-2.33518 6.0625,-3.5 4.74765,-2.32965 10.77871,-4.72144 16.90625,-7 6.12754,-2.27856 12.37267,-4.45796 17.40625,-6.34375 5.03359,-1.88579 9.09067,-3.7483 9.875,-4.34375 0.78433,-0.59546 3.75253,-4.0752 7.03125,-8.5 3.27873,-4.42481 7.21168,-9.95198 11.1875,-15.34375 3.97582,-5.39176 8.00175,-10.62331 11.59375,-14.625 1.796,-2.00085 3.46943,-3.70535 5.0625,-4.96875 1.59307,-1.26341 3.04117,-2.28425 5.03125,-2.28125 z"
       id="rect3970-8-6-1-5-4"
       inkscape:connector-curvature="0"
       sodipodi:nodetypes="ccccccsssssssssssssssssssccsccccscccsssssssssssssssssssc"
       inkscape:export-xdpi="90"
       inkscape:export-ydpi="90" />
    <g
       id="g3863" />
    <path
       style="fill:#000000;fill-opacity:1;fill-rule:nonzero;stroke:none"
       d="m -243.40124,857.64958 192,0 0,192.00002 -192,0 z"
       id="rect3970-8-6-1-5"
       inkscape:connector-curvature="0" />
    <path
       style="fill:#000000;fill-opacity:1;fill-rule:nonzero;stroke:none"
       d="m -27.728141,842.15896 255.474321,0 0,223.46594 -255.474321,0 z"
       id="rect3970-8-6-1-5-1-7"
       inkscape:connector-curvature="0" />
    <path
       sodipodi:type="star"
       style="fill:none;stroke:#ffffff;stroke-width:6.05164384999999960;stroke-linecap:round;stroke-linejoin:miter;stroke-miterlimit:4;stroke-opacity:1;stroke-dasharray:none;stroke-dashoffset:0;opacity:0.4"
       id="path3849-0"
       sodipodi:sides="5"
       sodipodi:cx="30.380869"
       sodipodi:cy="29.24535"
       sodipodi:r1="80.946236"
       sodipodi:r2="119.03858"
       sodipodi:arg1="0.51462382"
       sodipodi:arg2="1.1429423"
       inkscape:flatsided="false"
       inkscape:rounded="0.13"
       inkscape:randomized="0"
       d="m 100.84278,69.087688 c -4.583692,8.106348 -12.597437,64.601952 -21.070515,68.465902 -8.473079,3.86394 -56.383748,-27.12867 -65.509783,-28.98302 -9.1260344,-1.85435 -65.33293,7.98223 -71.626086,1.11787 -6.293156,-6.86435 8.377355,-62.007344 7.320849,-71.259746 -1.056506,-9.252401 -27.780533,-59.668665 -23.196839,-67.775013 4.583695,-8.106349 61.561238,-11.193987 70.034317,-15.057933 8.4730778,-3.863946 48.163616,-44.859489 57.28965,-43.005136 9.126036,1.854353 29.669583,55.089085 35.96274,61.953436 6.293156,6.864351 57.547287,31.9439771 58.603787,41.196378 1.05651,9.252402 -43.22442,45.240914 -47.80812,53.347262 z"
       transform="matrix(0.79112222,-0.16724998,0.15958086,0.82914191,67.257173,946.38258)"
       inkscape:transform-center-x="10.036921"
       inkscape:transform-center-y="0.02742975" />
    <path
       style="fill:#ffffff;fill-opacity:1;fill-rule:nonzero;stroke:none;opacity:0.29999999999999999"
       d="m 96.078185,867.42347 c 0.11115,1.7e-4 -2.09375,1.21875 -2.09375,1.21875 -1.22868,0.97443 -2.78231,2.49622 -4.46875,4.375 -3.37287,3.75757 -7.31104,8.97071 -11.25,14.3125 -3.93897,5.34179 -7.88988,10.82002 -11.21875,15.3125 -3.32887,4.49248 -5.74102,7.81627 -8,9.53125 -2.25899,1.71499 -6.01443,3.11662 -11.125,5.03125 -5.11058,1.91463 -11.33551,4.08632 -17.40625,6.34375 -6.07074,2.25744 -12.01073,4.59372 -16.46875,6.78125 -2.22901,1.09377 -4.0773305,2.17392 -5.3437505,3.09375 -1.26642,0.91982 -1.7845,1.79824 -1.75,1.6875 0.0345,-0.11074 -0.0358,0.91168 0.46875,2.4375 0.50455,1.52582 1.40999,3.55094 2.5937505,5.8125 2.36752,4.5231 5.83857,10.07933 9.46875,15.65625 3.63018,5.57691 7.42074,11.16865 10.46875,15.875 3.048,4.70634 5.29805,8.15587 6.15625,10.9375 0.85819,2.78163 0.93558,6.93932 1.09375,12.625 0.15817,5.68568 0.23371,12.56378 0.40625,19.31248 0.17254,6.7486 0.45503,13.3804 1.0625,18.5 0.30373,2.5598 0.68165,4.766 1.125,6.3125 0.44334,1.5466 1.08983,2.3503 1,2.2813 58.613664,-121.28862 30.699801,-96.48096 143.749995,-107.06253 0.50867,-1.52431 0.4658,-2.54834 0.5,-2.4375 0.0342,0.11084 -0.51733,-0.76391 -1.78125,-1.6875 -1.26392,-0.92359 -3.11771,-2.0246 -5.34375,-3.125 -4.45207,-2.2008 -10.3729,-4.537 -16.4375,-6.8125 -6.06459,-2.27551 -12.26964,-4.4764 -17.375,-6.40625 -5.10536,-1.92984 -8.87067,-3.30954 -11.125,-5.03125 -2.25432,-1.72171 -4.68332,-5.06013 -8,-9.5625 -3.31668,-4.50237 -7.20053,-10.02151 -11.125,-15.375 -3.92447,-5.3535 -7.88733,-10.5449 -11.25,-14.3125 -1.68134,-1.8838 -2.794335,-3.1043 -4.437495,-4.375 -0.643,-0.49725 -2.2049,-1.25016 -2.09375,-1.25 z"
       id="rect3970-8-6-1-5-4-9"
       inkscape:connector-curvature="0"
       sodipodi:nodetypes="csssssssssssssssssscccsssssssssac" />
    <path
       style="font-size:medium;font-style:normal;font-variant:normal;font-weight:normal;font-stretch:normal;text-indent:0;text-align:start;text-decoration:none;line-height:normal;letter-spacing:normal;word-spacing:normal;text-transform:none;direction:ltr;block-progression:tb;writing-mode:lr-tb;text-anchor:start;baseline-shift:baseline;opacity:0.4;color:#000000;fill:#ffffff;fill-opacity:1;stroke:none;stroke-width:3.64853358;marker:none;visibility:visible;display:inline;overflow:visible;enable-background:accumulate;font-family:Sans;-inkscape-font-specification:Sans"
       d="m 145.61228,1038.7502 c -16.40923,-3.4484 -18.48132,-3.6958 -19.99847,-2.0982 2.75241,1.5507 17.66488,5.6009 23.01769,5.9122 1.83423,-8.2525 2.02071,-11.3715 2.97256,-21.9141 -2.64546,-0.3198 -3.41326,5.6937 -5.99178,18.1001 z"
       id="path3916-4"
       inkscape:connector-curvature="0"
       sodipodi:nodetypes="ccccc" />
    <path
       style="font-size:medium;font-style:normal;font-variant:normal;font-weight:normal;font-stretch:normal;text-indent:0;text-align:start;text-decoration:none;line-height:normal;letter-spacing:normal;word-spacing:normal;text-transform:none;direction:ltr;block-progression:tb;writing-mode:lr-tb;text-anchor:start;baseline-shift:baseline;opacity:0.4;color:#000000;fill:#ffffff;fill-opacity:1;stroke:none;stroke-width:3.64853358;marker:none;visibility:visible;display:inline;overflow:visible;enable-background:accumulate;font-family:Sans;-inkscape-font-specification:Sans"
       d="m 15.834837,937.31686 c 15.153648,-7.17787 16.953421,-8.23406 17.195473,-10.42388 -3.129851,0.42968 -17.455394,6.22311 -21.90656,9.21253 3.530255,7.68143 5.26811,10.27816 10.886183,19.24981 2.300181,-1.3453 -0.725286,-6.59873 -6.175096,-18.03846 z"
       id="path3916-4-8"
       inkscape:connector-curvature="0"
       sodipodi:nodetypes="ccccc" />
    <path
       style="font-size:medium;font-style:normal;font-variant:normal;font-weight:normal;font-stretch:normal;text-indent:0;text-align:start;text-decoration:none;line-height:normal;letter-spacing:normal;word-spacing:normal;text-transform:none;direction:ltr;block-progression:tb;writing-mode:lr-tb;text-anchor:start;baseline-shift:baseline;opacity:0.4;color:#000000;fill:#ffffff;fill-opacity:1;stroke:none;stroke-width:3.64853358;marker:none;visibility:visible;display:inline;overflow:visible;enable-background:accumulate;font-family:Sans;-inkscape-font-specification:Sans"
       d="m 96.180334,876.57676 c 10.726056,12.18016 12.180206,13.5636 14.187786,13.11453 -1.28374,-2.84224 -10.545677,-14.6645 -14.475893,-17.969 -5.777965,5.73858 -7.574053,8.19611 -13.890985,16.31972 1.854434,1.7695 5.629652,-2.73613 14.179092,-11.46525 z"
       id="path3916-4-8-8"
       inkscape:connector-curvature="0"
       sodipodi:nodetypes="ccccc" />
  </g>
</svg>
